:SAMPLES-PER-SECOND 30
:FULLY-SPECIFIED
:DEGREES
16
root  20.3712 63.1138 40.0631 21.4916 1.63599 -0.297915
RightUpLeg  -62.1144 -0.7574 6.25735
RightLeg  64.8293 -2.43664 -6.28726
RightFoot  -15.4408 -0.074398 0.841223
RightToes  -7.13297 -0.0218998 -0.0662143
Spine  20.2796 -0.13367 1.2931
Spine1  3.36401 -0.308311 4.54714
HEad  -0.580602 -8.79653 0.455332
LeftShoulder1  -7.76503e-019 -2.42657e-020 -1.34036e-021
LeftArm  -24.292 68.7854 -22.4847
LeftForeArm  10.6318 -21.3312 -2.32467
LeftHand  13.5362 60.2697 25.0641
RightShoulder  7.45443e-017 -2.42657e-020 1.96277e-018
RightArm  -50.4222 -71.4479 34.1259
RightForeArm  21.2925 22.1416 2.68771
RightHand  -7.68758 17.1422 -38.4288
LeftUpLeg  -61.7109 0.160486 -0.325332
LeftLeg  64.7779 0.897342 2.76995
LeftFoot  -13.6382 0.0712845 -0.525532
LeftToes  -27.5933 1.06988e-006 1.21085e-007
17
root  20.4557 61.3719 39.3245 24.2326 1.50054 -0.572334
RightUpLeg  -70.2587 0.138188 6.7265
RightLeg  71.3613 -1.9234 -7.29142
RightFoot  -17.8067 -0.0666609 0.953429
RightToes  -10.0432 -0.0331712 -0.0923579
Spine  19.6925 0.0688367 1.54271
Spine1  2.63123 -0.231392 4.39098
HEad  -5.16584 -8.14597 0.494796
LeftShoulder1  -7.76503e-019 -2.42657e-020 -1.34036e-021
LeftArm  -40.9227 71.4822 -45.2054
LeftForeArm  8.54835 -19.1696 0.401549
LeftHand  10.7513 57.7089 21.2652
RightShoulder  7.45443e-017 -2.42657e-020 1.96277e-018
RightArm  -66.8824 -71.2554 54.4893
RightForeArm  18.8621 20.5158 0.71179
RightHand  -7.47046 16.7507 -38.0406
LeftUpLeg  -70.1365 -0.114472 -0.483755
LeftLeg  71.7241 1.06613 4.59255
LeftFoot  -15.7835 0.0653885 -0.75476
LeftToes  -27.4148 1.06988e-006 1.21085e-007
18
root  20.5421 59.4925 38.8329 26.1064 1.48847 -0.630722
RightUpLeg  -77.5954 1.12924 6.81089
RightLeg  78.34 -1.31329 -9.24604
RightFoot  -20.7053 -0.0401379 1.22153
RightToes  -9.85058 -0.0323843 -0.0906456
Spine  18.2693 0.0875072 1.5176
Spine1  1.4064 -0.193383 4.28324
HEad  -10.0692 -6.7397 0.68061
LeftShoulder1  -7.76503e-019 -2.42657e-020 -1.34036e-021
LeftArm  -52.2488 68.3627 -66.0752
LeftForeArm  5.37638 -16.3311 2.89658
LeftHand  12.2277 56.7067 24.5738
RightShoulder  7.45443e-017 -2.42657e-020 1.96277e-018
RightArm  -74.3653 -66.164 70.6363
RightForeArm  18.3572 18.6098 -1.60643
RightHand  -7.79196 16.2431 -40.3945
LeftUpLeg  -77.1903 -0.814953 -1.01647
LeftLeg  78.5052 0.939579 7.18863
LeftFoot  -19.7304 0.0386535 -1.08663
LeftToes  -20.9075 1.06988e-006 1.21085e-007
19
root  20.6403 57.6835 38.5516 25.8511 1.5891 -0.895493
RightUpLeg  -82.2264 2.031 7.00302
RightLeg  85.0554 -0.287611 -11.0069
RightFoot  -23.2381 -0.00174322 1.49423
RightToes  -10.3753 -0.0380185 -0.0953039
Spine  16.9785 0.145234 1.96379
Spine1  -0.94187 -0.0732693 3.99454
HEad  -13.9649 -5.79956 0.373005
LeftShoulder1  -7.76503e-019 -2.42657e-020 -1.34036e-021
LeftArm  -54.7119 58.0381 -78.9754
LeftForeArm  7.02411 -12.1389 4.32897
LeftHand  12.2731 55.6437 25.2509
RightShoulder  7.45443e-017 -2.42657e-020 1.96277e-018
RightArm  -66.2975 -55.6907 77.8068
RightForeArm  17.894 14.9347 -4.3082
RightHand  -7.55757 16.3379 -39.1229
LeftUpLeg  -81.3288 -1.367 -1.3141
LeftLeg  84.619 0.297043 9.43952
LeftFoot  -23.5556 -0.00780424 -1.39463
LeftToes  -17.843 1.06988e-006 1.21085e-007
20
root  20.7114 56.2597 38.3325 21.976 1.72245 -0.649354
RightUpLeg  -82.1151 2.59936 6.80257
RightLeg  90.6061 0.930333 -13.6271
RightFoot  -26.6831 0.0784414 1.92646
RightToes  -12.0351 -0.0416447 -0.109907
Spine  17.2627 0.270464 1.96751
Spine1  -2.14012 0.0276433 3.92837
HEad  -16.7051 -6.37456 -0.188302
LeftShoulder1  -7.76503e-019 -2.42657e-020 -1.34036e-021
LeftArm  -40.1675 42.2845 -83.5133
LeftForeArm  17.5912 -18.2237 1.95747
LeftHand  26.3708 84.767 29.6959
RightShoulder  7.45443e-017 -2.42657e-020 1.96277e-018
RightArm  -48.851 -40.4837 79.9268
RightForeArm  3.18582 24.0456 4.97929
RightHand  -20.0217 26.643 -65.0345
LeftUpLeg  -80.8437 -1.53294 -2.47354
LeftLeg  90.0353 -0.688312 11.7262
LeftFoot  -25.8475 -0.0666817 -1.74419
LeftToes  -21.5748 1.06988e-006 1.21085e-007
21
root  20.7543 55.1572 37.9434 14.8505 2.89359 -0.610575
RightUpLeg  -77.6953 2.72651 6.86432
RightLeg  94.5365 2.2347 -16.3447
RightFoot  -28.4776 0.168769 2.40375
RightToes  -9.95902 -0.0328266 -0.09161
Spine  17.6635 -0.0334001 2.6952
Spine1  -2.34589 -0.00172072 3.45902
HEad  -15.9497 -7.91296 -0.293159
LeftShoulder1  -7.76503e-019 -2.42657e-020 -1.34036e-021
LeftArm  -36.8125 17.5086 -85.8878
LeftForeArm  -97.9663 -30.2409 -8.53289
LeftHand  112.861 -48.9967 -143.272
RightShoulder  7.45443e-017 -2.42657e-020 1.96277e-018
RightArm  -26.6512 -17.6188 82.8016
RightForeArm  -33.5706 45.2834 13.2022
RightHand  -62.0372 76.6645 -73.9511
LeftUpLeg  -77.3411 -1.7996 -3.3082
LeftLeg  94.6366 -1.67389 11.9016
LeftFoot  -27.4272 -0.0886224 -1.79432
LeftToes  -20.492 1.06988e-006 1.21085e-007
22
root  20.7619 54.2931 37.2763 6.39968 3.99365 -0.803592
RightUpLeg  -71.4943 2.90814 7.11532
RightLeg  97.12 3.52165 -19.1988
RightFoot  -29.6158 0.269878 2.92925
RightToes  -8.68627 -0.0277505 -0.0802395
Spine  17.6013 -0.984561 2.81918
Spine1  -2.47752 -0.210257 3.97157
HEad  -15.3203 -12.6305 0.220344
LeftShoulder1  -7.76503e-019 -2.42657e-020 -1.34036e-021
LeftArm  -115.92 -18.3313 -84.3928
LeftForeArm  -60.6007 -9.20056 0.589167
LeftHand  141.919 -40.1862 -163.475
RightShoulder  7.45443e-017 -2.42657e-020 1.96277e-018
RightArm  -20.5289 11.9116 86.4732
RightForeArm  -18.3713 44.8745 12.2939
RightHand  -35.2932 56.784 -58.7125
LeftUpLeg  -72.0496 -1.41099 -4.0133
LeftLeg  97.8778 -2.43777 12.2441
LeftFoot  -26.4069 -0.0887184 -1.87107
LeftToes  -25.8319 1.06988e-006 1.21085e-007
23
root  20.7521 53.6572 36.5672 -1.05129 4.88226 -1.85975
RightUpLeg  -66.3785 2.18938 8.42931
RightLeg  98.7584 4.38324 -20.4369
RightFoot  -29.6086 0.312947 3.19795
RightToes  -7.57836 -0.0235385 -0.0702521
Spine  16.0885 -2.25121 3.46167
Spine1  -3.1777 -0.492677 4.38005
HEad  -17.1484 -14.2991 1.67289
LeftShoulder1  -7.76503e-019 -2.42657e-020 -1.34036e-021
LeftArm  145.662 -43.4005 -71.2287
LeftForeArm  25.9033 -18.6791 1.9975
LeftHand  157.803 -64.3034 -164.739
RightShoulder  7.45443e-017 -2.42657e-020 1.96277e-018
RightArm  -9.14657 38.1531 90.2156
RightForeArm  -17.5261 36.8915 9.38421
RightHand  -32.1154 47.7842 -62.5498
LeftUpLeg  -67.5846 -0.365605 -3.78312
LeftLeg  99.9225 -2.45031 10.1866
LeftFoot  -27.4949 -0.0527522 -1.53692
LeftToes  -16.1464 1.06988e-006 1.21085e-007
